<svg width="38" height="58" viewBox="0 0 38 58" fill="none" xmlns="http://www.w3.org/2000/svg">
<path d="M8.5 43.1V42.2999C8.5 36.5999 12.9 31.5 18.7 31.4C24.6 31.2 29.4 35.9999 29.4 41.7999V43M11.3 45.2C9.10004 50.9 14.1 57.0999 20.1 56.2999C25.3 55.5999 28.4 50 26.7 45.2M11.3 12.6999C9.10004 6.99995 14.1 0.799947 20.1 1.59995C25.3 2.29995 28.4 7.89995 26.7 12.6999M19 11.2C9.20005 11.2 1.30005 19.1 1.30005 28.9C1.30005 38.7 9.20005 46.6 19 46.6C28.8 46.6 36.7001 38.7 36.7001 28.9C36.7001 19.1 28.7 11.2 19 11.2ZM25.5 22.3999C25.5 25.9898 22.5899 28.8999 19 28.8999C15.4101 28.8999 12.5 25.9898 12.5 22.3999C12.5 18.8101 15.4101 15.8999 19 15.8999C22.5899 15.8999 25.5 18.8101 25.5 22.3999Z" stroke="#EEEEEE" stroke-width="1.8738" stroke-miterlimit="10" stroke-linecap="round"/>
</svg>
