<svg width="29" height="28" viewBox="0 0 29 28" fill="none" xmlns="http://www.w3.org/2000/svg">
<path d="M4.60066 27.5454H24.1526C24.6662 27.5456 25.1749 27.4451 25.6494 27.2494C26.124 27.0537 26.5552 26.7669 26.9184 26.4051C27.2816 26.0433 27.5698 25.6142 27.7664 25.1415C27.963 24.6687 28.0642 24.1617 28.0642 23.6499V19.7545H26.1091V23.6499C26.1091 23.9059 26.0585 24.1596 25.9602 24.3961C25.8619 24.6325 25.7176 24.8473 25.5359 25.0282C25.3542 25.2091 25.1386 25.3519 24.9013 25.4497C24.6639 25.5475 24.4094 25.5982 24.1526 25.598H4.60066C4.08215 25.598 3.58502 25.3928 3.21838 25.0275C2.85174 24.6622 2.64576 24.1666 2.64576 23.6499V4.16963C2.64576 3.65288 2.8516 3.15758 3.2182 2.79205C3.5848 2.42652 4.08202 2.22048 4.60066 2.22009H24.1526C24.4096 2.2199 24.6642 2.27056 24.9016 2.36846C25.1391 2.46635 25.3548 2.60957 25.5365 2.79062C25.7182 2.97167 25.8623 3.18691 25.9606 3.4235C26.0588 3.66009 26.1093 3.91358 26.1091 4.16963V8.06512H28.0642V4.16963C28.0642 3.13602 27.6521 2.14463 26.9186 1.41376C26.185 0.682883 25.19 0.272705 24.1526 0.272705H4.60066C4.08706 0.272705 3.57849 0.373563 3.104 0.569436C2.62951 0.765309 2.19849 1.05185 1.83538 1.41376C1.47228 1.77567 1.18419 2.20526 0.987776 2.67809C0.791363 3.15092 0.690481 3.6579 0.690674 4.16963V23.6499C0.690674 24.6832 1.10264 25.6738 1.83592 26.4044C2.5692 27.135 3.56364 27.5454 4.60066 27.5454Z" fill="white"/>
</svg>
