<svg width="48" height="48" viewBox="0 0 48 48" fill="none" xmlns="http://www.w3.org/2000/svg">
<path d="M24.0001 26.6426C25.4595 26.6426 26.6426 25.4595 26.6426 24C26.6426 22.5406 25.4595 21.3575 24.0001 21.3575C22.5406 21.3575 21.3575 22.5406 21.3575 24C21.3575 25.4595 22.5406 26.6426 24.0001 26.6426Z" fill="#EEEEEE"/>
<path fill-rule="evenodd" clip-rule="evenodd" d="M24 2.97876C12.3903 2.97876 2.97876 12.3903 2.97876 24C2.97876 35.6098 12.3903 45.0213 24 45.0213C35.6098 45.0213 45.0213 35.6098 45.0213 24C45.0213 12.3903 35.6098 2.97876 24 2.97876ZM0.97876 24C0.97876 11.2857 11.2857 0.97876 24 0.97876C36.7143 0.97876 47.0213 11.2857 47.0213 24C47.0213 36.7143 36.7143 47.0213 24 47.0213C11.2857 47.0213 0.97876 36.7143 0.97876 24ZM31.282 11.3302C31.6198 11.5249 31.8136 11.8982 31.7786 12.2865L30.7216 24.0018C30.6719 24.5518 30.1858 24.9575 29.6357 24.9079C29.0857 24.8583 28.68 24.3721 28.7297 23.8221L29.5922 14.2619L21.7583 19.7959C21.3072 20.1146 20.6833 20.0072 20.3646 19.5561C20.0459 19.1051 20.1533 18.4811 20.6044 18.1624L30.2057 11.3798C30.5241 11.1549 30.9442 11.1355 31.282 11.3302ZM18.3644 23.0921C18.9145 23.1418 19.3201 23.6279 19.2705 24.178L18.4079 33.7381L26.2418 28.2041C26.6929 27.8855 27.3169 27.9928 27.6356 28.4439C27.9542 28.895 27.8469 29.519 27.3958 29.8376L17.7945 36.6202C17.4761 36.8451 17.0559 36.8645 16.7182 36.6698C16.3804 36.4751 16.1865 36.1019 16.2216 35.7136L17.2786 23.9982C17.3282 23.4482 17.8144 23.0425 18.3644 23.0921Z" fill="#EEEEEE"/>
</svg>
