<svg width="40" height="38" viewBox="0 0 40 38" fill="none" xmlns="http://www.w3.org/2000/svg">
<path d="M1.7001 37.3001H6.0001C6.6001 37.3001 7.1001 36.8001 7.1001 36.2001C7.1001 35.6001 6.6001 35.1001 6.0001 35.1001H2.8001V17.9001H6.0001C6.6001 17.9001 7.1001 17.4001 7.1001 16.8001C7.1001 16.2001 6.6001 15.7001 6.0001 15.7001H2.8001V2.8001H15.7001V15.7001H12.5001C11.9001 15.7001 11.4001 16.2001 11.4001 16.8001C11.4001 17.4001 11.9001 17.9001 12.5001 17.9001H23.3001V23.3001C23.3001 23.9001 23.8001 24.4001 24.4001 24.4001C25.0001 24.4001 25.5001 23.9001 25.5001 23.3001V17.9001H28.7001C29.3001 17.9001 29.8001 17.4001 29.8001 16.8001C29.8001 16.2001 29.3001 15.7001 28.7001 15.7001H17.8001V2.8001H37.2001V15.7001H35.0001C34.4001 15.7001 33.9001 16.2001 33.9001 16.8001C33.9001 17.4001 34.4001 17.9001 35.0001 17.9001H37.2001V35.1001H25.4001V29.7001C25.4001 29.1001 24.9001 28.6001 24.3001 28.6001C23.7001 28.6001 23.2001 29.1001 23.2001 29.7001V35.1001H12.4001C11.8001 35.1001 11.3001 35.6001 11.3001 36.2001C11.3001 36.8001 11.8001 37.3001 12.4001 37.3001H38.3001C38.9001 37.3001 39.4001 36.8001 39.4001 36.2001V1.7001C39.4001 1.1001 38.9001 0.600098 38.3001 0.600098H1.7001C1.1001 0.600098 0.600098 1.1001 0.600098 1.7001V36.2001C0.600098 36.8001 1.1001 37.3001 1.7001 37.3001Z" fill="#EEEEEE"/>
</svg>
