<svg width="14" height="14" viewBox="0 0 14 14" fill="none" xmlns="http://www.w3.org/2000/svg">
<path d="M12.5714 8.04834H7.92847V12.6914C7.92056 12.9324 7.81926 13.1605 7.646 13.3281C7.47273 13.4958 7.24111 13.5898 7 13.5898C6.75889 13.5898 6.52715 13.4958 6.35388 13.3281C6.18062 13.1605 6.07932 12.9324 6.07141 12.6914V8.04834H1.42847C1.18221 8.04834 0.945978 7.95049 0.771851 7.77637C0.597723 7.60224 0.5 7.36588 0.5 7.11963C0.5 6.87338 0.597723 6.63751 0.771851 6.46338C0.945978 6.28925 1.18221 6.19141 1.42847 6.19141H6.07141V1.54834C6.06733 1.42384 6.08836 1.29981 6.13318 1.18359C6.178 1.06737 6.24577 0.961095 6.3324 0.871582C6.41902 0.782069 6.52276 0.711208 6.63745 0.662598C6.75214 0.613987 6.87544 0.588867 7 0.588867C7.12456 0.588867 7.24786 0.613987 7.36255 0.662598C7.47724 0.711208 7.58086 0.782069 7.66748 0.871582C7.7541 0.961095 7.82188 1.06737 7.8667 1.18359C7.91152 1.29981 7.93255 1.42384 7.92847 1.54834V6.19141H12.5714C12.8177 6.19141 13.0539 6.28925 13.228 6.46338C13.4022 6.63751 13.5 6.87338 13.5 7.11963C13.5 7.36588 13.4022 7.60224 13.228 7.77637C13.0539 7.95049 12.8177 8.04834 12.5714 8.04834Z" fill="#D6D6D6"/>
</svg>
