<svg width="97" height="93" viewBox="0 0 97 93" fill="none" xmlns="http://www.w3.org/2000/svg">
<path d="M48.5002 0.621094C44.3821 0.644255 40.4319 2.25661 37.474 5.12207C34.5162 7.98753 32.7791 11.8846 32.6252 16C25.4528 19.0615 19.3404 24.1666 15.0503 30.679C10.7601 37.1913 8.48207 44.8227 8.50023 52.6211C8.50023 53.3091 8.46923 54.0591 8.50023 54.8711C4.97101 56.9228 2.36242 60.249 1.21116 64.1655C0.0599052 68.0821 0.453548 72.2912 2.31114 75.9263C4.16873 79.5614 7.34896 82.3459 11.1974 83.7075C15.0459 85.0691 19.2699 84.9042 23.0002 83.2461C30.1185 89.298 39.1571 92.6206 48.5002 92.6206C57.8434 92.6206 66.882 89.298 74.0002 83.2461C76.0457 84.1576 78.2609 84.6261 80.5002 84.6211C84.0317 84.6282 87.4659 83.4642 90.2654 81.3115C93.0649 79.1588 95.0718 76.139 95.9719 72.7241C96.8721 69.3093 96.6147 65.692 95.2401 62.439C93.8655 59.186 91.4513 56.4807 88.3752 54.7461C88.4534 54.0404 88.4951 53.3311 88.5002 52.6211C88.5184 44.8227 86.2403 37.1913 81.9502 30.679C77.66 24.1666 71.5476 19.0615 64.3752 16C64.2214 11.8846 62.4843 7.98753 59.5264 5.12207C56.5685 2.25661 52.6184 0.644255 48.5002 0.621094ZM48.5002 8.62109C50.0825 8.62109 51.6292 9.09019 52.9448 9.96924C54.2604 10.8483 55.2858 12.0978 55.8913 13.5596C56.4968 15.0214 56.6552 16.6298 56.3465 18.1816C56.0378 19.7335 55.2759 21.159 54.1571 22.2778C53.0383 23.3967 51.6128 24.1586 50.061 24.4673C48.5091 24.776 46.9006 24.6175 45.4388 24.012C43.977 23.4065 42.7275 22.3813 41.8485 21.0657C40.9694 19.7501 40.5002 18.2033 40.5002 16.6211C40.4917 15.5681 40.6928 14.524 41.0918 13.5496C41.4909 12.5751 42.0798 11.6896 42.8244 10.9451C43.569 10.2005 44.4542 9.61166 45.4287 9.21265C46.4032 8.81363 47.4473 8.61257 48.5002 8.62109ZM34.3752 24C35.7091 26.5972 37.7333 28.7763 40.2253 30.2979C42.7172 31.8194 45.5805 32.6245 48.5002 32.6245C51.42 32.6245 54.2832 31.8194 56.7752 30.2979C59.2671 28.7763 61.2913 26.5972 62.6252 24C67.9941 26.6077 72.519 30.6763 75.6807 35.7388C78.8424 40.8012 80.5128 46.6525 80.5002 52.6211C76.2609 52.6345 72.1991 54.3246 69.2014 57.3223C66.2037 60.3199 64.5137 64.3818 64.5002 68.6211C64.5129 72.0584 65.6548 75.3963 67.7502 78.1211C62.2186 82.3375 55.4556 84.6211 48.5002 84.6211C41.5449 84.6211 34.7819 82.3375 29.2502 78.1211C31.3457 75.3963 32.4876 72.0584 32.5002 68.6211C32.4868 64.3818 30.7967 60.3199 27.7991 57.3223C24.8014 54.3246 20.7396 52.6345 16.5002 52.6211C16.4876 46.6525 18.158 40.8012 21.3197 35.7388C24.4815 30.6763 29.0064 26.6077 34.3752 24ZM16.5002 60.6211C18.0825 60.6211 19.6292 61.0902 20.9448 61.9692C22.2604 62.8483 23.2858 64.0978 23.8913 65.5596C24.4968 67.0214 24.6552 68.6298 24.3465 70.1816C24.0378 71.7335 23.2759 73.159 22.1571 74.2778C21.0383 75.3967 19.6128 76.1586 18.061 76.4673C16.5091 76.776 14.9006 76.6177 13.4388 76.0122C11.977 75.4067 10.7275 74.381 9.84849 73.0654C8.96944 71.7498 8.50023 70.2033 8.50023 68.6211C8.4917 67.5681 8.69282 66.5238 9.09184 65.5493C9.49086 64.5749 10.0798 63.6899 10.8244 62.9453C11.569 62.2007 12.4542 61.6114 13.4287 61.2124C14.4031 60.8134 15.4473 60.6126 16.5002 60.6211ZM80.5002 60.6211C82.0825 60.6211 83.6292 61.0902 84.9448 61.9692C86.2604 62.8483 87.2858 64.0978 87.8913 65.5596C88.4968 67.0214 88.6552 68.6298 88.3465 70.1816C88.0378 71.7335 87.2759 73.159 86.1571 74.2778C85.0383 75.3967 83.6128 76.1586 82.061 76.4673C80.5091 76.776 78.9006 76.6177 77.4388 76.0122C75.977 75.4067 74.7275 74.381 73.8485 73.0654C72.9694 71.7498 72.5002 70.2033 72.5002 68.6211C72.4917 67.5681 72.6928 66.5238 73.0918 65.5493C73.4909 64.5749 74.0798 63.6899 74.8244 62.9453C75.569 62.2007 76.4542 61.6114 77.4287 61.2124C78.4032 60.8134 79.4473 60.6126 80.5002 60.6211Z" fill="#1A2835"/>
</svg>
