<svg width="41" height="34" viewBox="0 0 41 34" fill="none" xmlns="http://www.w3.org/2000/svg">
<path d="M37.518 14.5724L30.0071 19.4295C30.0071 17.9809 29.3084 16.6175 28.2604 15.7654C30.7931 14.3168 32.5399 11.5899 32.5399 8.52228C32.5399 3.83556 28.6097 0.000976562 23.8062 0.000976562C19.0028 0.000976562 15.0726 3.83556 15.0726 8.52228C15.0726 10.9082 16.1207 13.0386 17.6927 14.5724H13.1512C14.3739 13.2942 15.0726 11.5899 15.0726 9.71526C15.0726 5.71025 11.7538 2.38694 7.5617 2.38694C3.36956 2.38694 0.0507812 5.62504 0.0507812 9.71526C0.0507812 11.9308 1.09882 13.8907 2.67087 15.1689C1.09882 16.021 0.0507812 17.5549 0.0507812 19.4295V29.1438C0.0507812 31.8706 2.32153 34.001 5.02896 34.001H25.0289C27.8237 34.001 30.0071 31.7854 30.0071 29.1438V27.9508L37.518 34.001C38.9154 34.001 40.0508 32.8932 40.0508 31.5298V17.0436C39.9634 15.6802 38.8281 14.5724 37.518 14.5724ZM2.58354 9.71526C2.58354 6.98844 4.85428 4.85812 7.5617 4.85812C10.3565 4.85812 12.5399 7.07366 12.5399 9.71526C12.5399 12.3569 10.2691 14.5724 7.5617 14.5724C4.76694 14.5724 2.58354 12.4421 2.58354 9.71526ZM27.4744 29.229C27.4744 30.5925 26.339 31.7002 24.9416 31.7002H4.94162C3.54424 31.7002 2.40887 30.5925 2.40887 29.229V19.5148C2.40887 18.1514 3.54424 17.0436 4.94162 17.0436H24.9416C26.339 17.0436 27.4744 18.1514 27.4744 19.5148V29.229ZM23.7189 14.6576C20.2255 14.6576 17.4307 11.9308 17.4307 8.52228C17.4307 5.11376 20.2255 2.38694 23.7189 2.38694C27.2124 2.38694 30.0071 5.11376 30.0071 8.52228C30.0071 11.9308 27.2124 14.6576 23.7189 14.6576ZM37.518 31.615L30.0071 25.5649V21.9007L37.518 17.0436V31.615Z" fill="white"/>
</svg>
