<svg width="43" height="24" viewBox="0 0 43 24" fill="none" xmlns="http://www.w3.org/2000/svg">
<path d="M14.6379 20.9271V20.4544C14.6094 18.7255 15.2516 17.0522 16.4297 15.7865C17.6078 14.5207 19.2303 13.7608 20.9568 13.6654C21.8233 13.6424 22.6856 13.793 23.4929 14.1087C24.3001 14.4245 25.0359 14.8985 25.6569 15.5033C26.2778 16.108 26.7714 16.8316 27.1083 17.6302C27.4453 18.4288 27.6189 19.2869 27.6189 20.1537V20.9261M29.5669 19.1456C30.0396 20.3363 30.867 21.352 31.9369 22.0567C33.0068 22.7614 34.2674 23.1209 35.548 23.085C36.8286 23.0491 38.0672 22.62 39.0959 21.8565C40.1247 21.093 40.8938 20.0318 41.2991 18.8165C41.7044 17.6012 41.7263 16.2907 41.3618 15.0626C40.9972 13.8344 40.264 12.7476 39.2613 11.9503C38.2586 11.1529 37.035 10.6831 35.7563 10.6045C34.4776 10.5259 33.2057 10.8422 32.1129 11.5108M12.6899 19.1456C12.2171 20.3363 11.3897 21.352 10.3199 22.0567C9.24998 22.7614 7.98931 23.1209 6.70872 23.085C5.42813 23.0491 4.18955 22.62 3.16081 21.8565C2.13206 21.093 1.36293 20.0318 0.95762 18.8165C0.552311 17.6012 0.53041 16.2907 0.894936 15.0626C1.25946 13.8344 1.99277 12.7476 2.99546 11.9503C3.99815 11.1529 5.22179 10.6831 6.50047 10.6045C7.77915 10.5259 9.05103 10.8422 10.1438 11.5108M21.1279 1.08984C27.203 1.08984 32.1279 6.01471 32.1279 12.0898C32.1279 18.165 27.203 23.0898 21.1279 23.0898C15.0527 23.0898 10.1279 18.165 10.1279 12.0898C10.1279 6.01471 15.0527 1.08984 21.1279 1.08984ZM25.1859 8.08239C25.1859 10.323 23.3695 12.1394 21.1289 12.1394C18.8883 12.1394 17.0719 10.323 17.0719 8.08239C17.0719 5.84177 18.8883 4.02539 21.1289 4.02539C23.3695 4.02539 25.1859 5.84177 25.1859 8.08239Z" stroke="#D6D6D6" stroke-miterlimit="10" stroke-linecap="round"/>
</svg>
