<svg width="43" height="40" viewBox="0 0 43 40" fill="none" xmlns="http://www.w3.org/2000/svg">
<path d="M40 1.73241L38.2676 0L-0.000332744 38.2679L1.73208 40.0003L40 1.73241Z" fill="#FF6363"/>
<path d="M21.6569 14.0801C20.5428 12.9158 19.9289 11.3614 19.9466 9.75002C19.9643 8.13864 20.6122 6.59807 21.7517 5.45852C22.8911 4.31897 24.4314 3.67123 26.0428 3.65334C27.6542 3.63546 29.2086 4.24884 30.373 5.36282L32.1049 3.63088C30.4882 2.02937 28.3031 1.13331 26.0274 1.1387C23.7518 1.14408 21.5708 2.05055 19.9617 3.65969C18.3526 5.26883 17.4462 7.44995 17.4408 9.72561C17.4354 12.0013 18.3315 14.186 19.933 15.8028L21.6569 14.0801Z" fill="#D6D6D6"/>
<path d="M39.6394 15.96L32.2524 20.8838C32.2507 20.1753 32.095 19.4758 31.7961 18.8335C31.4973 18.1912 31.0622 17.6216 30.5214 17.1641C31.7694 16.4204 32.8083 15.3719 33.5406 14.1172C34.273 12.8624 34.6748 11.4422 34.7084 9.98975L26.2764 18.4219H27.3284C27.9813 18.4219 28.6076 18.6814 29.0693 19.1431C29.531 19.6048 29.7904 20.2308 29.7904 20.8838V30.7329C29.7904 31.386 29.531 32.0122 29.0693 32.4741C28.6077 32.936 27.9814 33.1955 27.3284 33.1958H11.5024L9.04041 35.6577H27.3284C28.6344 35.6574 29.8869 35.1384 30.8103 34.2148C31.7337 33.2913 32.2524 32.0389 32.2524 30.7329V29.499L39.6394 35.6548C39.9628 35.6549 40.283 35.5915 40.5818 35.4678C40.8806 35.3441 41.152 35.1627 41.3806 34.9341C41.6093 34.7054 41.7906 34.434 41.9143 34.1353C42.038 33.8365 42.1016 33.5162 42.1014 33.1929V18.4189C42.1009 17.7664 41.8412 17.1408 41.3795 16.6797C40.9178 16.2186 40.2919 15.9597 39.6394 15.96ZM39.6394 33.1958L32.2524 27.04V23.3472L39.6394 18.4219V33.1958Z" fill="#D6D6D6"/>
<path d="M5.16853 30.5679V20.8838C5.1684 20.5605 5.23198 20.2402 5.35566 19.9414C5.47934 19.6427 5.66071 19.3713 5.88935 19.1426C6.118 18.914 6.38948 18.7326 6.68824 18.6089C6.98701 18.4852 7.30721 18.4218 7.63056 18.4219H17.3135L19.7766 15.96H15.5626C16.5504 14.8723 17.1914 13.5149 17.4038 12.0611C17.6161 10.6072 17.3902 9.12269 16.7548 7.79789C16.1194 6.47309 15.1035 5.36804 13.8367 4.62358C12.57 3.87912 11.1101 3.52922 9.6435 3.61869C8.17694 3.70816 6.77036 4.23309 5.60353 5.12602C4.43669 6.01894 3.56261 7.23917 3.09297 8.63139C2.62333 10.0236 2.57945 11.5242 2.96699 12.9414C3.35453 14.3587 4.15586 15.6284 5.26856 16.5879C4.49427 17.0081 3.84754 17.6291 3.39649 18.3858C2.94545 19.1425 2.70674 20.0068 2.70552 20.8877V30.7369C2.70511 31.3935 2.83602 32.0437 3.09053 32.649L5.16853 30.5679ZM5.16853 11.0352C5.16873 10.0614 5.45767 9.10946 5.99885 8.29984C6.54003 7.49023 7.30911 6.8589 8.20887 6.48637C9.10863 6.11384 10.0987 6.01648 11.0538 6.20658C12.0089 6.39669 12.8862 6.86605 13.5747 7.55473C14.2633 8.2434 14.7321 9.12059 14.922 10.0757C15.1119 11.0309 15.0143 12.0208 14.6416 12.9205C14.2689 13.8201 13.6378 14.5894 12.8281 15.1304C12.0183 15.6714 11.0664 15.96 10.0925 15.96C9.44583 15.96 8.80543 15.8325 8.20796 15.585C7.61048 15.3375 7.06767 14.975 6.61042 14.5176C6.15317 14.0603 5.7905 13.517 5.5431 12.9195C5.29571 12.322 5.1684 11.6819 5.16853 11.0352Z" fill="#D6D6D6"/>
</svg>
