<svg width="41" height="28" viewBox="0 0 41 28" fill="none" xmlns="http://www.w3.org/2000/svg">
<path d="M31.9803 7.55661C31.8896 7.4662 31.8176 7.35865 31.7684 7.24053C31.7193 7.1224 31.694 6.99568 31.694 6.86782C31.694 6.73997 31.7193 6.61324 31.7684 6.49511C31.8176 6.37699 31.8896 6.27016 31.9803 6.17975C32.071 6.08934 32.1786 6.01724 32.2972 5.96831C32.4157 5.91938 32.5429 5.89449 32.6713 5.89449C32.7996 5.89449 32.9266 5.91938 33.0452 5.96831C33.1637 6.01724 33.2715 6.08934 33.3622 6.17975L40.1069 12.9013C40.284 13.1052 40.3814 13.3657 40.3814 13.6353C40.3814 13.9049 40.284 14.1654 40.1069 14.3692L33.3622 21.0887C33.179 21.2713 32.9304 21.3739 32.6713 21.3739C32.4121 21.3739 32.1636 21.2713 31.9803 21.0887C31.797 20.9061 31.694 20.6588 31.694 20.4006C31.694 20.1424 31.797 19.8944 31.9803 19.7118L37.1059 14.605H16.0024C15.7432 14.605 15.4946 14.5024 15.3113 14.3198C15.128 14.1371 15.025 13.8893 15.025 13.631C15.025 13.3727 15.128 13.1256 15.3113 12.9429C15.4946 12.7603 15.7432 12.6577 16.0024 12.6577H37.1059L31.9803 7.55661Z" fill="#FF6363"/>
<path d="M4.29134 27.2727H23.8433C24.3569 27.2729 24.8655 27.1724 25.3401 26.9767C25.8147 26.781 26.2458 26.4942 26.6091 26.1324C26.9723 25.7706 27.2604 25.3415 27.457 24.8688C27.6536 24.396 27.7549 23.889 27.7549 23.3772V19.4817H25.7998V23.3772C25.7998 23.6332 25.7492 23.8869 25.6509 24.1234C25.5525 24.3598 25.4083 24.5746 25.2266 24.7555C25.0449 24.9364 24.8293 25.0792 24.5919 25.177C24.3546 25.2748 24.1001 25.3255 23.8433 25.3253H4.29134C3.77283 25.3253 3.2757 25.1201 2.90906 24.7548C2.54241 24.3895 2.33643 23.8939 2.33643 23.3772V3.89692C2.33643 3.38018 2.54228 2.88488 2.90888 2.51935C3.27548 2.15381 3.77269 1.94778 4.29134 1.94739H23.8433C24.1002 1.94719 24.3548 1.99786 24.5923 2.09575C24.8298 2.19365 25.0454 2.33686 25.2272 2.51791C25.4089 2.69897 25.553 2.9142 25.6512 3.1508C25.7495 3.38739 25.8 3.64088 25.7998 3.89692V7.79241H27.7549V3.89692C27.7549 2.86331 27.3428 1.87193 26.6093 1.14105C25.8757 0.410178 24.8807 0 23.8433 0H4.29134C3.77773 -3.63263e-08 3.26916 0.100858 2.79467 0.296731C2.32018 0.492604 1.88916 0.779141 1.52605 1.14105C1.16295 1.50296 0.874864 1.93256 0.67845 2.40538C0.482036 2.87821 0.381154 3.3852 0.381348 3.89692V23.3772C0.381348 24.4105 0.79331 25.4011 1.52659 26.1317C2.25988 26.8623 3.25432 27.2727 4.29134 27.2727Z" fill="#FF6363"/>
</svg>
