<svg width="13" height="14" viewBox="0 0 13 14" fill="none" style="fill: var(--color_fill)" xmlns="http://www.w3.org/2000/svg">
<path d="M9.57063 8.5277C9.18047 8.52779 8.79665 8.6264 8.45472 8.81432C8.1128 9.00224 7.82384 9.27358 7.61462 9.6029L5.12463 8.18004C5.26427 7.91899 5.34955 7.63221 5.37533 7.33727C5.40111 7.04234 5.36686 6.74506 5.27462 6.46374L7.86563 4.98278C8.26689 5.42983 8.81926 5.71277 9.41652 5.77721C10.0138 5.84165 10.6138 5.68307 11.1012 5.3319C11.5886 4.98073 11.9289 4.46181 12.0569 3.87487C12.1848 3.28793 12.0912 2.67436 11.7942 2.15221C11.4972 1.63007 11.0176 1.23621 10.4477 1.04626C9.87779 0.856301 9.25779 0.883893 8.70687 1.1234C8.15596 1.36292 7.71302 1.7973 7.46322 2.34362C7.21342 2.88994 7.17438 3.50951 7.35362 4.08288L4.76263 5.56383C4.45789 5.22982 4.06248 4.99178 3.62469 4.87878C3.1869 4.76577 2.72567 4.78281 2.29734 4.9276C1.86901 5.07239 1.49211 5.33875 1.21267 5.6942C0.933237 6.04966 0.76336 6.47866 0.723781 6.92907C0.684203 7.37947 0.776641 7.8316 0.989803 8.23034C1.20297 8.62908 1.52763 8.9574 1.92414 9.17467C2.32066 9.39195 2.77186 9.48889 3.22265 9.45397C3.67344 9.41905 4.10431 9.25364 4.46263 8.9779L4.45362 8.99596L7.26962 10.6048C7.21982 11.0718 7.31294 11.543 7.53665 11.9559C7.76035 12.3689 8.10411 12.704 8.52249 12.9173C8.94086 13.1307 9.41415 13.2121 9.87977 13.1507C10.3454 13.0894 10.7814 12.8881 11.1302 12.5736C11.479 12.2591 11.7241 11.8463 11.8331 11.3895C11.9422 10.9327 11.91 10.4536 11.7409 10.0155C11.5718 9.57735 11.2737 9.20098 10.886 8.9359C10.4983 8.67083 10.0393 8.52923 9.56962 8.53063L9.57063 8.5277ZM9.57063 2.01598C9.84752 2.01598 10.1182 2.09799 10.3484 2.25182C10.5787 2.40566 10.7581 2.62442 10.8641 2.88024C10.97 3.13606 10.9977 3.41726 10.9437 3.68883C10.8897 3.96041 10.7564 4.20984 10.5606 4.40563C10.3648 4.60142 10.1153 4.73491 9.84375 4.78893C9.57217 4.84295 9.29068 4.8153 9.03486 4.70934C8.77905 4.60338 8.5604 4.42395 8.40657 4.19372C8.25273 3.96349 8.17062 3.69278 8.17062 3.41588C8.16996 3.23185 8.20572 3.04942 8.27584 2.87926C8.34597 2.70911 8.44907 2.55481 8.5792 2.42467C8.70934 2.29454 8.86393 2.19109 9.03408 2.12096C9.20424 2.05084 9.38659 2.01532 9.57063 2.01598ZM3.05862 8.5277C2.78173 8.5277 2.51106 8.44569 2.28083 8.29186C2.05061 8.13803 1.87116 7.91926 1.76519 7.66344C1.65923 7.40763 1.63151 7.12642 1.68553 6.85485C1.73955 6.58328 1.87288 6.33385 2.06868 6.13805C2.26447 5.94226 2.51393 5.80877 2.7855 5.75475C3.05708 5.70073 3.33857 5.72838 3.59439 5.83434C3.8502 5.9403 4.06885 6.11974 4.22268 6.34997C4.37652 6.5802 4.45863 6.8509 4.45863 7.1278C4.45863 7.4991 4.31113 7.85548 4.04858 8.11803C3.78603 8.38058 3.42992 8.5277 3.05862 8.5277ZM9.57063 12.2499C9.29374 12.2499 9.02306 12.1679 8.79283 12.014C8.5626 11.8602 8.38315 11.6414 8.27719 11.3856C8.17122 11.1298 8.1435 10.8481 8.19752 10.5765C8.25154 10.305 8.38488 10.0555 8.58067 9.85973C8.77646 9.66394 9.02592 9.53094 9.2975 9.47692C9.56907 9.4229 9.85056 9.45055 10.1064 9.55651C10.3622 9.66247 10.5808 9.84191 10.7347 10.0721C10.8885 10.3024 10.9706 10.5731 10.9706 10.85C10.9706 11.2213 10.8231 11.5772 10.5606 11.8397C10.298 12.1023 9.94193 12.2499 9.57063 12.2499Z" fill="white"/>
</svg>
