<svg width="75" height="72" viewBox="0 0 75 72" fill="none" xmlns="http://www.w3.org/2000/svg">
<path d="M21.7163 57.6221V59.387C21.7163 59.4183 21.7039 59.4483 21.6817 59.4705C21.6596 59.4926 21.6296 59.5051 21.5983 59.5051H16.0593C16.028 59.5051 15.998 59.5174 15.9759 59.5396C15.9537 59.5617 15.9413 59.5918 15.9413 59.623V63.282C15.9413 63.3133 15.9537 63.3433 15.9759 63.3655C15.998 63.3876 16.028 63.3999 16.0593 63.3999H19.6223C19.701 63.4012 19.776 63.4336 19.8312 63.4897C19.8864 63.5459 19.9173 63.6212 19.9173 63.7V65.2881C19.9173 65.3668 19.8864 65.4422 19.8312 65.4983C19.776 65.5544 19.701 65.5868 19.6223 65.5881H16.0593C16.028 65.5881 15.998 65.6004 15.9759 65.6226C15.9537 65.6447 15.9413 65.6748 15.9413 65.7061V69.406C15.9413 69.4373 15.9537 69.4674 15.9759 69.4895C15.998 69.5116 16.028 69.5239 16.0593 69.5239H21.5983C21.6296 69.5239 21.6596 69.5365 21.6817 69.5586C21.7039 69.5807 21.7163 69.6108 21.7163 69.6421V71.407C21.7163 71.4865 21.6847 71.5629 21.6284 71.6191C21.5722 71.6754 21.4959 71.707 21.4163 71.707H14.0533C13.9746 71.7057 13.8996 71.6736 13.8444 71.6174C13.7892 71.5613 13.7583 71.4857 13.7583 71.407V57.6331C13.7583 57.5544 13.7892 57.4787 13.8444 57.4226C13.8996 57.3665 13.9746 57.3343 14.0533 57.333H21.4163C21.494 57.333 21.5687 57.3631 21.6246 57.417C21.6806 57.4709 21.7135 57.5444 21.7163 57.6221Z" fill="white"/>
<path d="M65.0534 71.689H63.1594C63.1125 71.689 63.0675 71.6704 63.0343 71.6372C63.0011 71.604 62.9824 71.5589 62.9824 71.512V57.501C62.9824 57.4777 62.987 57.4548 62.9959 57.4333C63.0048 57.4119 63.0178 57.3924 63.0343 57.376C63.0507 57.3595 63.0702 57.3463 63.0917 57.3374C63.1132 57.3285 63.1362 57.324 63.1594 57.324H65.5654C65.5953 57.324 65.6247 57.3316 65.6509 57.3459C65.6771 57.3603 65.6993 57.3808 65.7154 57.406L74.6334 71.5061C74.6446 71.524 74.6508 71.5445 74.6514 71.5657C74.652 71.5868 74.647 71.6077 74.6368 71.6262C74.6266 71.6448 74.6116 71.6603 74.5935 71.6711C74.5753 71.682 74.5546 71.6878 74.5334 71.688H72.2654C72.2355 71.6877 72.2061 71.68 72.1799 71.6655C72.1537 71.651 72.1316 71.6302 72.1154 71.605L65.1714 60.625V71.5701C65.1716 71.5856 65.1686 71.601 65.1627 71.6155C65.1569 71.6299 65.1482 71.643 65.1372 71.6541C65.1263 71.6651 65.1132 71.6739 65.0988 71.6799C65.0844 71.6859 65.069 71.689 65.0534 71.689Z" fill="white"/>
<path d="M11.0434 57.4451V71.396C11.0434 71.4747 11.0125 71.5503 10.9573 71.6065C10.9021 71.6626 10.8271 71.6947 10.7484 71.6961H8.5424C8.49111 71.6955 8.44083 71.6816 8.39636 71.656C8.35189 71.6305 8.31472 71.5941 8.2884 71.5501L0.0163949 57.509C0.00587931 57.4912 0.000230888 57.4709 6.92699e-06 57.4502C-0.000217034 57.4295 0.00499331 57.4091 0.0151208 57.3911C0.0252482 57.3731 0.0399336 57.3582 0.057708 57.3477C0.0754825 57.3371 0.0957184 57.3313 0.116393 57.3311H2.27139C2.32258 57.3315 2.37281 57.345 2.41727 57.3704C2.46173 57.3957 2.49895 57.4322 2.5254 57.4761L8.85439 68.2219V57.6221C8.85438 57.5434 8.88531 57.4677 8.94049 57.4116C8.99567 57.3555 9.0707 57.3233 9.1494 57.322H10.9244C10.9404 57.3219 10.9563 57.3249 10.971 57.3311C10.9858 57.3372 10.9992 57.3464 11.0103 57.3579C11.0214 57.3694 11.0301 57.3832 11.0358 57.3982C11.0415 57.4132 11.0441 57.4291 11.0434 57.4451Z" fill="white"/>
<path d="M34.3634 57.6221V71.574C34.3634 71.6053 34.351 71.6353 34.3289 71.6575C34.3067 71.6796 34.2767 71.6919 34.2454 71.6919H32.2534C32.2023 71.6915 32.1522 71.6783 32.1077 71.6531C32.0633 71.6279 32.026 71.5917 31.9994 71.5481L25.9424 61.4221V71.574C25.9424 71.6053 25.93 71.6353 25.9079 71.6575C25.8857 71.6796 25.8557 71.6919 25.8244 71.6919H24.0534C24.014 71.6919 23.975 71.6843 23.9386 71.6692C23.9022 71.6541 23.8691 71.6321 23.8413 71.6042C23.8134 71.5764 23.7913 71.5432 23.7763 71.5068C23.7612 71.4704 23.7534 71.4315 23.7534 71.3921V57.6179C23.7534 57.5384 23.785 57.462 23.8413 57.4058C23.8975 57.3495 23.9739 57.3181 24.0534 57.3181H25.8694C25.9204 57.318 25.9705 57.3309 26.0148 57.356C26.0592 57.381 26.0963 57.4172 26.1224 57.4609L32.1704 67.5869V57.436C32.1704 57.4047 32.1828 57.3747 32.205 57.3525C32.2271 57.3304 32.2571 57.3181 32.2884 57.3181H34.0634C34.1032 57.3181 34.1425 57.326 34.1792 57.3413C34.2158 57.3566 34.2491 57.3789 34.277 57.4072C34.3049 57.4355 34.3269 57.469 34.3417 57.5059C34.3566 57.5427 34.3639 57.5823 34.3634 57.6221Z" fill="white"/>
<path d="M38.3213 69.6888C37.1251 68.4907 36.3813 66.9151 36.2166 65.2301C36.0519 63.5451 36.4764 61.855 37.4179 60.4479C38.3593 59.0408 39.7595 58.0037 41.3798 57.5131C43.0002 57.0224 44.7405 57.1087 46.3044 57.7572C47.8683 58.4057 49.159 59.5761 49.9566 61.0695C50.7543 62.5628 51.0096 64.2865 50.679 65.9469C50.3484 67.6073 49.4525 69.1019 48.1437 70.1759C46.8349 71.2499 45.1943 71.8367 43.5013 71.8368C42.5369 71.8515 41.5798 71.6686 40.6889 71.2992C39.798 70.9298 38.9922 70.3817 38.3213 69.6888ZM39.8673 60.8749C39.0253 61.7144 38.5005 62.8199 38.3823 64.0031C38.2642 65.1862 38.5599 66.3736 39.2192 67.3632C39.8785 68.3527 40.8605 69.0832 41.9978 69.4298C43.1352 69.7764 44.3576 69.7177 45.4567 69.264C46.5557 68.8104 47.4635 67.9897 48.0252 66.9418C48.587 65.8938 48.7679 64.6834 48.5373 63.517C48.3067 62.3505 47.6787 61.3004 46.7604 60.545C45.8421 59.7897 44.6903 59.3761 43.5013 59.3749C42.8252 59.3636 42.1541 59.4909 41.5291 59.7489C40.9041 60.0069 40.3385 60.3901 39.8673 60.8749Z" fill="white"/>
<path d="M55.9533 71.8221C55.027 71.7893 54.1233 71.5272 53.3233 71.0592C52.5685 70.6453 51.9624 70.0052 51.5903 69.2291C51.5732 69.1918 51.564 69.1514 51.5632 69.1104C51.5624 69.0694 51.57 69.0285 51.5856 68.9906C51.6011 68.9526 51.6243 68.9184 51.6537 68.8897C51.683 68.8611 51.7179 68.8387 51.7563 68.8241L53.2623 68.2711C53.3286 68.2482 53.4008 68.2494 53.4664 68.2742C53.532 68.2991 53.5868 68.346 53.6213 68.4071C53.8406 68.7736 54.163 69.0675 54.5483 69.252C55.017 69.4875 55.5302 69.6212 56.0543 69.6441C56.799 69.705 57.5398 69.4864 58.1323 69.0311C58.34 68.8826 58.513 68.6909 58.6394 68.4691C58.7657 68.2472 58.8425 68.0006 58.8643 67.7462C58.9056 66.8302 57.9453 66.0966 55.9833 65.546C52.9126 64.6826 51.4236 63.2203 51.5163 61.159C51.5147 60.5032 51.6856 59.8586 52.0116 59.2896C52.3377 58.7206 52.8076 58.2473 53.3743 57.9171C54.3517 57.3491 55.4794 57.0934 56.6063 57.1842C57.8872 57.1956 59.1177 57.6843 60.0573 58.555C60.0865 58.583 60.1097 58.6167 60.1256 58.6539C60.1414 58.6911 60.1496 58.7311 60.1496 58.7716C60.1496 58.812 60.1414 58.852 60.1256 58.8892C60.1097 58.9264 60.0865 58.9601 60.0573 58.9881L58.8883 60.076C58.8352 60.1255 58.7656 60.1538 58.6929 60.1549C58.6203 60.156 58.5499 60.13 58.4953 60.0821C57.9364 59.6171 57.2323 59.3627 56.5053 59.3631C55.935 59.3226 55.3629 59.408 54.8293 59.6131C54.494 59.738 54.2053 59.963 54.0024 60.2576C53.7995 60.5523 53.6923 60.9023 53.6953 61.2601C53.6553 62.1634 54.6156 62.8894 56.5763 63.4381C58.0303 63.7448 59.3468 64.512 60.3303 65.6261C60.8258 66.2566 61.0788 67.0439 61.0433 67.845C61.0146 68.4111 60.8611 68.9639 60.5938 69.4637C60.3266 69.9635 59.9521 70.398 59.4973 70.7362C58.5679 71.4726 57.4097 71.8597 56.2243 71.8302C56.1323 71.8322 56.0423 71.8291 55.9533 71.8221Z" fill="white"/>
<path d="M12.5653 4.65894H64.1953C64.2467 4.65902 64.2972 4.67269 64.3417 4.69849C64.3862 4.72428 64.4232 4.76131 64.4488 4.80591C64.4744 4.8505 64.4879 4.90119 64.4878 4.95264C64.4877 5.00408 64.4741 5.05462 64.4482 5.09912L38.6343 49.811C38.6084 49.8554 38.5713 49.8924 38.5267 49.918C38.4822 49.9436 38.4317 49.957 38.3802 49.957C38.3288 49.957 38.2783 49.9436 38.2338 49.918C38.1892 49.8924 38.1521 49.8554 38.1263 49.811L12.3122 5.09912C12.2864 5.05462 12.2728 5.00408 12.2727 4.95264C12.2726 4.90119 12.2861 4.8505 12.3117 4.80591C12.3373 4.76131 12.3743 4.72428 12.4188 4.69849C12.4633 4.67269 12.5138 4.65902 12.5653 4.65894V4.65894Z" stroke="white" stroke-width="1.17" stroke-miterlimit="10"/>
<path d="M5.58935 1H53.7703C53.8217 1.00001 53.8722 1.01363 53.9167 1.03931C53.9612 1.06498 53.9982 1.10177 54.0239 1.14624C54.0497 1.19071 54.0632 1.2411 54.0633 1.29248C54.0634 1.34386 54.05 1.39442 54.0244 1.43896L29.9424 43.1521C29.9168 43.1968 29.8799 43.2339 29.8354 43.2598C29.7909 43.2856 29.7403 43.2991 29.6889 43.2991C29.6374 43.2991 29.5868 43.2856 29.5423 43.2598C29.4978 43.2339 29.4609 43.1968 29.4353 43.1521L5.33535 1.43896C5.30975 1.39442 5.29631 1.34386 5.29639 1.29248C5.29646 1.2411 5.31005 1.19071 5.33578 1.14624C5.36151 1.10177 5.39848 1.06498 5.44299 1.03931C5.48749 1.01363 5.53797 1.00001 5.58935 1Z" stroke="white" stroke-width="1.17" stroke-miterlimit="10"/>
<path d="M31.6534 7.91602H66.0534C66.1049 7.91592 66.1556 7.92936 66.2002 7.95508C66.2449 7.9808 66.2819 8.01787 66.3077 8.0625C66.3335 8.10713 66.347 8.1577 66.3469 8.20923C66.3469 8.26076 66.3333 8.31138 66.3074 8.35596L49.1074 38.1431C49.0815 38.1875 49.0444 38.2241 48.9999 38.2498C48.9553 38.2754 48.9048 38.2891 48.8534 38.2891C48.802 38.2891 48.7515 38.2754 48.7069 38.2498C48.6624 38.2241 48.6253 38.1875 48.5994 38.1431L31.3994 8.35596C31.3736 8.31138 31.3599 8.26076 31.3599 8.20923C31.3598 8.1577 31.3733 8.10713 31.3991 8.0625C31.4249 8.01787 31.4619 7.9808 31.5066 7.95508C31.5512 7.92936 31.6019 7.91592 31.6534 7.91602V7.91602Z" stroke="white" stroke-width="1.17" stroke-miterlimit="10"/>
<path d="M12.5653 4.66406H52.1653L32.1123 39.3989L12.3123 5.09912C12.2874 5.0548 12.2745 5.00469 12.2749 4.95386C12.2753 4.90303 12.2889 4.85302 12.3145 4.80908C12.34 4.76514 12.3766 4.72883 12.4206 4.70337C12.4646 4.6779 12.5145 4.66434 12.5653 4.66406V4.66406Z" stroke="white" stroke-width="1.17" stroke-miterlimit="10"/>
</svg>
