<svg width="22" height="13" viewBox="0 0 22 13" fill="none" xmlns="http://www.w3.org/2000/svg">
<path d="M0.960633 1.56494L10.3506 11.8442C10.5312 12.0003 10.7619 12.0859 11.0006 12.0859C11.2393 12.0859 11.4701 12.0003 11.6506 11.8442L21.0406 1.56494C21.1953 1.40194 21.2804 1.18519 21.2777 0.96045C21.275 0.735708 21.1847 0.521006 21.026 0.361817C20.8673 0.202628 20.6528 0.11138 20.428 0.107911C20.2033 0.104441 19.9861 0.189048 19.8226 0.343262L11.0006 10.0029L2.17761 0.343262C2.01557 0.181613 1.79597 0.0905396 1.56708 0.090821C1.33819 0.0911023 1.11874 0.18268 0.957093 0.344727C0.795444 0.506774 0.704798 0.726191 0.705079 0.955079C0.70536 1.18397 0.796572 1.40329 0.958619 1.56494H0.960633Z" fill="#D6D6D6"/>
</svg>
