<svg width="10" height="16" viewBox="0 0 10 16" fill="none" xmlns="http://www.w3.org/2000/svg">
<path d="M8.29688 0.772056L0.807861 7.61288C0.692541 7.74424 0.628906 7.91317 0.628906 8.08797C0.628906 8.26278 0.692541 8.43171 0.807861 8.56307L8.29688 15.4049C8.41597 15.5162 8.57357 15.577 8.73657 15.5743C8.89958 15.5716 9.05525 15.5059 9.17065 15.3907C9.28606 15.2756 9.3522 15.1201 9.35522 14.9571C9.35825 14.7941 9.29795 14.636 9.18689 14.5167L2.1488 8.08797L9.18689 1.65975C9.29795 1.5404 9.35825 1.38281 9.35522 1.21981C9.3522 1.05681 9.28606 0.901365 9.17065 0.786216C9.05525 0.671068 8.89958 0.605279 8.73657 0.602623C8.57357 0.599966 8.41597 0.660729 8.29688 0.772056Z" fill="white"/>
</svg>
