<svg width="32" height="41" viewBox="0 0 32 41" fill="none" xmlns="http://www.w3.org/2000/svg">
<path d="M5.17224 23.9375C5.15724 23.8755 5.12726 23.8183 5.11426 23.7563H2.61426C2.751 24.4944 2.95173 25.2192 3.21423 25.9224L5.17224 23.9375Z" fill="#D6D6D6"/>
<path d="M10.1173 8.75554C10.1138 7.28253 10.6319 5.8557 11.5798 4.7282C12.5278 3.6007 13.8442 2.84544 15.296 2.59587C16.7477 2.34631 18.2409 2.6187 19.5109 3.36492C20.7809 4.11114 21.7457 5.28291 22.2343 6.67253L24.1143 4.77263C23.2252 3.02232 21.7716 1.62274 19.9887 0.800952C18.2057 -0.0208368 16.1977 -0.217068 14.2894 0.243823C12.381 0.704715 10.684 1.79605 9.47266 3.34099C8.26134 4.88594 7.6066 6.79431 7.61433 8.75749V21.2575C7.61433 21.3225 10.1143 18.9377 10.1143 18.9377V8.75749L10.1173 8.75554Z" fill="#D6D6D6"/>
<path d="M29.5856 3.77051L0.101562 32.0005L1.88654 33.7612L31.3815 5.54541L29.5856 3.77051Z" fill="#FF6363"/>
<path d="M16.365 32.5054C14.0012 32.4898 11.6978 31.7575 9.75897 30.4053L8.00195 32.1831C10.073 33.742 12.5339 34.6996 15.114 34.9502V37.5063H13.864C13.5324 37.5063 13.2145 37.6381 12.9801 37.8726C12.7457 38.107 12.614 38.4248 12.614 38.7563C12.614 39.0879 12.7457 39.4057 12.9801 39.6401C13.2145 39.8746 13.5324 40.0063 13.864 40.0063H18.864C19.1955 40.0063 19.5134 39.8746 19.7479 39.6401C19.9823 39.4057 20.114 39.0879 20.114 38.7563C20.114 38.4248 19.9823 38.107 19.7479 37.8726C19.5134 37.6381 19.1955 37.5063 18.864 37.5063H17.618V34.9502C20.6303 34.6826 23.4753 33.4482 25.7281 31.4307C27.981 29.4132 29.5209 26.721 30.118 23.7563H27.618C26.9871 26.261 25.5366 28.4825 23.4976 30.0679C21.4585 31.6532 18.9478 32.5113 16.365 32.5054V32.5054Z" fill="#D6D6D6"/>
<path d="M16.3652 27.5054C15.3254 27.4991 14.304 27.2295 13.3962 26.7222L11.5752 28.5664C12.8934 29.4339 14.422 29.928 15.9985 29.9966C17.5751 30.0652 19.1408 29.7053 20.5294 28.9556C21.9179 28.2058 23.0775 27.0941 23.8849 25.7383C24.6923 24.3825 25.1175 22.8334 25.1152 21.2554V14.8643L22.6152 17.3945V21.2554C22.615 22.9129 21.9564 24.5023 20.7844 25.6743C19.6123 26.8464 18.0228 27.5051 16.3652 27.5054V27.5054Z" fill="#D6D6D6"/>
</svg>
