<svg width="29" height="41" viewBox="0 0 29 41" fill="none" xmlns="http://www.w3.org/2000/svg">
<path d="M28.4917 24.019H25.9917C24.8917 29.019 20.0917 32.819 14.6917 32.819C9.2917 32.819 4.5917 29.019 3.4917 24.019H0.991699C2.0917 30.019 7.2917 34.619 13.4917 35.219V37.819H12.1917C11.4917 37.819 10.8917 38.419 10.8917 39.119C10.8917 39.819 11.4917 40.419 12.1917 40.419H17.1917C17.8917 40.419 18.4917 39.819 18.4917 39.119C18.4917 38.419 17.8917 37.819 17.1917 37.819H15.9917V35.219C22.1917 34.719 27.3917 30.019 28.4917 24.019ZM14.7917 30.319C19.5917 30.319 23.5917 26.419 23.5917 21.519V9.01899C23.5917 4.21899 19.6917 0.218994 14.7917 0.218994C9.8917 0.218994 5.9917 4.21899 5.9917 9.01899V21.519C5.9917 26.419 9.8917 30.319 14.7917 30.319ZM8.4917 9.01899C8.4917 5.51899 11.2917 2.71899 14.7917 2.71899C18.2917 2.71899 20.9917 5.61899 20.9917 9.01899V21.519C20.9917 25.019 18.1917 27.819 14.6917 27.819C11.1917 27.819 8.3917 25.019 8.3917 21.519V9.01899H8.4917Z" fill="white"/>
</svg>
